HIERARCHY
ROOT root
{
	OFFSET 0.000000 0.000000 0.000000
	CHANNELS 6 Xposition Yposition Zposition Zrotation Yrotation Xrotation
	JOINT lhip
	{
		OFFSET 0.058581 -0.082280 -0.017664
		CHANNELS 3 Zrotation Yrotation Xrotation
		JOINT lknee
		{
			OFFSET 0.043451 -0.386469 0.008037
			CHANNELS 3 Zrotation Yrotation Xrotation
			JOINT lankle
			{
				OFFSET -0.014790 -0.426874 -0.037428
				CHANNELS 3 Zrotation Yrotation Xrotation
				JOINT ltoe
				{
					OFFSET 0.041054 -0.060286 0.122042
					CHANNELS 3 Zrotation Yrotation Xrotation
					End Site
					{
						OFFSET 0.000000 0.000000 0.000000
					}
				}
			}
		}
	}
	JOINT rhip
	{
		OFFSET -0.060310 -0.090513 -0.013543
		CHANNELS 3 Zrotation Yrotation Xrotation
		JOINT rknee
		{
			OFFSET -0.043257 -0.383688 -0.004843
			CHANNELS 3 Zrotation Yrotation Xrotation
			JOINT rankle
			{
				OFFSET 0.019056 -0.420046 -0.034562
				CHANNELS 3 Zrotation Yrotation Xrotation
				JOINT rtoe
				{
					OFFSET -0.034840 -0.062106 0.130323
					CHANNELS 3 Zrotation Yrotation Xrotation
					End Site
					{
						OFFSET 0.000000 0.000000 0.000000
					}
				}
			}
		}
	}
	JOINT lowerback
	{
		OFFSET 0.004439 0.124404 -0.038385
		CHANNELS 3 Zrotation Yrotation Xrotation
		JOINT upperback
		{
			OFFSET 0.004488 0.137956 0.026820
			CHANNELS 3 Zrotation Yrotation Xrotation
			JOINT chest
			{
				OFFSET -0.002265 0.056032 0.002855
				CHANNELS 3 Zrotation Yrotation Xrotation
				JOINT lowerneck
				{
					OFFSET -0.013390 0.211636 -0.033468
					CHANNELS 3 Zrotation Yrotation Xrotation
					JOINT upperneck
					{
						OFFSET 0.010113 0.088937 0.050410
						CHANNELS 3 Zrotation Yrotation Xrotation
						End Site
						{
							OFFSET 0.000000 0.000000 0.000000
						}
					}
				}
				JOINT lclavicle
				{
					OFFSET 0.071702 0.114000 -0.018898
					CHANNELS 3 Zrotation Yrotation Xrotation
					JOINT lshoulder
					{
						OFFSET 0.122921 0.045205 -0.019046
						CHANNELS 3 Zrotation Yrotation Xrotation
						JOINT lelbow
						{
							OFFSET 0.255332 -0.015649 -0.022946
							CHANNELS 3 Zrotation Yrotation Xrotation
							JOINT lwrist
							{
								OFFSET 0.265709 0.012698 -0.007375
								CHANNELS 3 Zrotation Yrotation Xrotation
								End Site
								{
									OFFSET 0.000000 0.000000 0.000000
								}
							}
						}
					}
				}
				JOINT rclavicle
				{
					OFFSET -0.082954 0.112472 -0.023707
					CHANNELS 3 Zrotation Yrotation Xrotation
					JOINT rshoulder
					{
						OFFSET -0.113228 0.046853 -0.008472
						CHANNELS 3 Zrotation Yrotation Xrotation
						JOINT relbow
						{
							OFFSET -0.260127 -0.014369 -0.031269
							CHANNELS 3 Zrotation Yrotation Xrotation
							JOINT rwrist
							{
								OFFSET -0.269108 0.006794 -0.006027
								CHANNELS 3 Zrotation Yrotation Xrotation
								End Site
								{
									OFFSET 0.000000 0.000000 0.000000
								}
							}
						}
					}
				}
			}
		}
	}
}
MOTION
Frames: 5
Frame Time: 0.033333
0.146821 -0.179568 0.937515 153.370140 7.003480 91.575745 26.955005 15.366062 -0.368472 1.346135 5.891443 14.382976 -12.145180 1.234692 -10.111262 0.000000 -0.000000 0.000000 6.053793 10.107678 -27.984699 3.643716 2.248557 35.103059 3.853995 4.228070 -15.539289 0.000000 -0.000000 0.000000 -10.675418 -11.949437 19.202242 1.291403 -25.038661 3.336040 -0.522711 -12.713125 -11.434225 -15.643514 53.782502 0.771188 -1.208822 30.618372 0.546499 29.047587 -60.869126 -35.852955 29.776840 -70.770295 -52.358962 8.885913 -27.560959 -0.750218 12.100180 -20.440237 0.450225 -11.314162 18.269395 -17.646246 36.691252 27.709599 -0.847993 -112.715538 36.097089 -75.429862 -43.283668 13.854776 -21.821845 
0.142331 -0.180593 0.939182 153.224440 7.053846 91.526890 26.812812 15.720143 -0.862324 1.150973 5.911283 15.143377 -11.871743 1.269646 -10.192536 0.000000 -0.000000 0.000000 6.102320 9.918613 -27.752123 3.465534 2.846685 34.485682 4.183419 4.306496 -15.110246 0.000000 -0.000000 0.000000 -10.532481 -12.042561 19.684829 1.129858 -25.027317 2.827224 -0.586541 -12.774932 -11.016248 -16.216189 53.540201 0.333598 -1.085800 31.067156 0.642880 29.626574 -60.296345 -36.551078 30.766046 -71.093329 -53.706587 8.892587 -27.222429 -0.690731 12.417854 -19.574823 0.432077 -12.342129 17.474288 -17.964015 36.818429 27.511813 -0.930797 -112.167340 36.164162 -75.471725 -43.391731 13.143563 -22.752955 
0.136273 -0.182297 0.940910 153.202819 7.090001 91.663491 26.416007 15.703665 -1.677353 1.054142 5.553718 15.943782 -11.454584 1.444893 -10.570207 0.000000 -0.000000 0.000000 5.897722 9.642731 -27.722674 3.386357 3.209261 33.665417 4.402612 4.345665 -14.622180 0.000000 -0.000000 0.000000 -10.576096 -11.818562 19.907293 1.038917 -25.042473 2.622016 -0.627591 -12.803400 -10.519641 -16.040022 53.447445 0.553617 -1.167709 31.081363 0.467622 29.839319 -60.030311 -36.513061 30.724188 -71.197531 -53.891594 8.835263 -26.813832 0.000668 11.682908 -18.178847 0.664360 -12.558160 17.098443 -17.954860 37.212339 27.522175 -0.829272 -111.179543 36.282536 -75.026412 -43.525503 12.093791 -24.105184 
0.128279 -0.184251 0.942553 153.540182 7.149115 91.880892 26.099818 15.507942 -2.885464 0.742811 5.582143 17.035040 -11.229613 1.416271 -10.995147 0.000000 -0.000000 0.000000 5.319747 9.220361 -27.831117 3.401161 3.060372 32.765239 4.880802 4.575266 -13.994132 0.000000 -0.000000 0.000000 -10.751963 -11.269068 20.220991 1.263911 -25.078022 2.688644 -0.493899 -12.810456 -10.121780 -15.290965 53.645039 1.399731 -1.295832 30.754284 0.349413 29.741495 -59.862977 -36.054008 30.591630 -71.368019 -53.816293 8.395797 -25.859807 0.589273 11.136999 -17.393927 0.616058 -12.396225 16.921880 -17.797979 38.085738 27.551600 -0.153879 -109.830057 36.452657 -74.449988 -44.608999 10.515721 -26.191563 
0.118875 -0.186723 0.944527 154.221114 7.459477 92.041362 26.166696 15.604780 -4.271606 0.111535 5.420420 18.261823 -10.903670 0.990558 -11.419691 0.000000 -0.000000 0.000000 4.973639 8.316233 -27.814538 3.258202 2.564060 31.706213 5.374752 5.149017 -13.246423 0.000000 -0.000000 0.000000 -10.592425 -10.668068 20.906924 1.649189 -25.024267 2.497566 -0.235864 -12.876759 -9.655021 -14.777921 53.896754 1.633925 -1.207225 30.089949 0.909569 29.408197 -59.478293 -35.606924 27.953276 -71.865094 -51.713139 8.005277 -25.044797 2.136954 9.863406 -16.119985 0.611155 -12.250613 16.781976 -17.742761 40.170197 28.165563 0.905395 -108.196678 36.424239 -73.579097 -44.409121 8.252623 -28.459570 
